0
SECTION
2
HEADER
9
$INSUNITS
70
1
9
$ACADVER
1
AC1014
9
$HANDSEED
5
FFFF
0
ENDSEC
0
SECTION
2
TABLES
0
TABLE
2
VPORT
5
8
100
AcDbSymbolTable
0
ENDTAB
0
TABLE
2
LTYPE
5
5
100
AcDbSymbolTable
0
LTYPE
5
14
100
AcDbSymbolTableRecord
100
AcDbLinetypeTableRecord
2
BYBLOCK
70
0
0
LTYPE
5
15
100
AcDbSymbolTableRecord
100
AcDbLinetypeTableRecord
2
BYLAYER
70
0
0
ENDTAB
0
TABLE
2
LAYER
5
2
100
AcDbSymbolTable
70
2
0
LAYER
5
50
100
AcDbSymbolTableRecord
100
AcDbLayerTableRecord
2
0
70
0
6
CONTINUOUS
0
ENDTAB
0
TABLE
2
STYLE
5
3
100
AcDbSymbolTable
70
1
0
STYLE
5
11
100
AcDbSymbolTableRecord
100
AcDbTextStyleTableRecord
2
STANDARD
70
0
0
ENDTAB
0
TABLE
2
VIEW
5
6
100
AcDbSymbolTable
70
0
0
ENDTAB
0
TABLE
2
UCS
5
7
100
AcDbSymbolTable
70
0
0
ENDTAB
0
TABLE
2
APPID
5
9
100
AcDbSymbolTable
70
2
0
APPID
5
12
100
AcDbSymbolTableRecord
100
AcDbRegAppTableRecord
2
ACAD
70
0
0
ENDTAB
0
TABLE
2
DIMSTYLE
5
A
100
AcDbSymbolTable
70
1
0
ENDTAB
0
TABLE
2
BLOCK_RECORD
5
1
100
AcDbSymbolTable
70
1
0
BLOCK_RECORD
5
1F
100
AcDbSymbolTableRecord
100
AcDbBlockTableRecord
2
*MODEL_SPACE
0
BLOCK_RECORD
5
1B
100
AcDbSymbolTableRecord
100
AcDbBlockTableRecord
2
*PAPER_SPACE
0
ENDTAB
0
ENDSEC
0
SECTION
2
BLOCKS
0
BLOCK
5
20
100
AcDbEntity
100
AcDbBlockBegin
2
*MODEL_SPACE
0
ENDBLK
5
21
100
AcDbEntity
100
AcDbBlockEnd
0
BLOCK
5
1C
100
AcDbEntity
100
AcDbBlockBegin
2
*PAPER_SPACE
0
ENDBLK
5
1D
100
AcDbEntity
100
AcDbBlockEnd
0
ENDSEC
0
SECTION
2
ENTITIES
0
CIRCLE
5
100
100
AcDbEntity
8
0
100
AcDbCircle
10
-0.0020570637531947774
20
0.94488338254771242
30
0
40
0.19685039370078738
0
CIRCLE
5
101
100
AcDbEntity
8
0
100
AcDbCircle
10
1.0007429682216333
20
1.3585526287293803
30
0
40
0.19685039370078755
0
CIRCLE
5
102
100
AcDbEntity
8
0
100
AcDbCircle
10
0.0020570637531947774
20
3.7795260662711851
30
0
40
0.19685039370078755
0
CIRCLE
5
103
100
AcDbEntity
8
0
100
AcDbCircle
10
1.4173213418617365
20
2.3601476606562528
30
0
40
0.19685039370078752
0
CIRCLE
5
104
100
AcDbEntity
8
0
100
AcDbCircle
10
1.0036520956800672
20
3.3629476926310811
30
0
40
0.19685039370078755
0
CIRCLE
5
105
100
AcDbEntity
8
0
100
AcDbCircle
10
-1.0007429682216333
20
3.3658568200895167
30
0
40
0.19685039370078755
0
CIRCLE
5
106
100
AcDbEntity
8
0
100
AcDbCircle
10
-1.4173213418617365
20
2.3642617881626435
30
0
40
0.19685039370078752
0
CIRCLE
5
107
100
AcDbEntity
8
0
100
AcDbCircle
10
-1.0036520956800672
20
1.3614617561878153
30
0
40
0.19685039370078755
0
CIRCLE
5
108
100
AcDbEntity
8
0
100
AcDbCircle
10
8.4114173228346427
20
0.34055118110236232
30
0
40
0.098425196850393346
0
LWPOLYLINE
5
109
100
AcDbEntity
8
0
100
AcDbPolyline
90
4
70
1
43
0.0
10
3.883858267716533
20
0.98425196850393659
10
11.757874015748028
20
0.98425196850393726
42
0.99999999999999989
10
11.757874015748028
20
3.7401574803149602
10
3.883858267716533
20
3.7401574803149602
42
0.99999999999999989
0
CIRCLE
5
110
100
AcDbEntity
8
0
100
AcDbCircle
10
8.4114173228346427
20
4.3838582677165343
30
0
40
0.098425196850393692
0
CIRCLE
5
111
100
AcDbEntity
8
0
100
AcDbCircle
10
11.167322834645667
20
4.3838582677165343
30
0
40
0.098425196850393692
0
CIRCLE
5
112
100
AcDbEntity
8
0
100
AcDbCircle
10
11.167322834645667
20
0.34055118110236254
30
0
40
0.098425196850393692
0
CIRCLE
5
113
100
AcDbEntity
8
0
100
AcDbCircle
10
14.514022866382417
20
4.3307086614173196
30
0
40
0.078740157480315029
0
CIRCLE
5
114
100
AcDbEntity
8
0
100
AcDbCircle
10
14.514022866382419
20
0.39370078740157488
30
0
40
0.078740157480315029
0
LWPOLYLINE
5
115
100
AcDbEntity
8
0
100
AcDbPolyline
90
4
70
1
43
0.0
10
15.50764491362631
20
1.3484251968503951
42
-0.99999999999999989
10
15.50764491362631
20
1.190944881889765
10
15.271424441185367
20
1.190944881889765
42
-0.99999999999999989
10
15.271424441185367
20
1.3484251968503951
0
LWPOLYLINE
5
116
100
AcDbEntity
8
0
100
AcDbPolyline
90
4
70
1
43
0.0
10
15.271424441185362
20
3.3661417322834661
42
-0.99999999999999989
10
15.271424441185367
20
3.5236220472440953
10
15.507644913626315
20
3.5236220472440953
42
-0.99999999999999989
10
15.50764491362631
20
3.3661417322834661
0
LWPOLYLINE
5
117
100
AcDbEntity
8
0
100
AcDbPolyline
90
4
70
1
43
0.0
10
15.704495307326896
20
-1.7483827159451283e-16
10
0
20
-6.9935308637805131e-16
42
-0.99999999999999989
10
0
20
4.7244094488188972
10
15.7044953073269
20
4.7244094488188972
0
CIRCLE
5
118
100
AcDbEntity
8
0
100
AcDbCircle
10
0.0020570637531942327
20
3.7795260662711851
30
-6.6391677588588633e-18
40
0.19685039370078755
0
CIRCLE
5
119
100
AcDbEntity
8
0
100
AcDbCircle
10
-1.0036520956800676
20
1.3614617561878153
30
8.9202281174562473e-18
40
0.19685039370078755
0
CIRCLE
5
120
100
AcDbEntity
8
0
100
AcDbCircle
10
-1.0007429682216338
20
3.3658568200895167
30
-4.2186610902183774e-18
40
0.19685039370078755
0
CIRCLE
5
121
100
AcDbEntity
8
0
100
AcDbCircle
10
-1.417321341861737
20
2.3642617881626435
30
6.6571612001409874e-18
40
0.19685039370078752
0
CIRCLE
5
122
100
AcDbEntity
8
0
100
AcDbCircle
10
1.0036520956800667
20
3.3629476926310811
30
-8.9202281174736392e-18
40
0.19685039370078755
0
CIRCLE
5
123
100
AcDbEntity
8
0
100
AcDbCircle
10
-0.0020570637531953221
20
0.94488338254771242
30
6.6391677588392296e-18
40
0.19685039370078738
0
CIRCLE
5
124
100
AcDbEntity
8
0
100
AcDbCircle
10
1.4173213418617361
20
2.3601476606562528
30
-6.6571612001608638e-18
40
0.19685039370078752
0
CIRCLE
5
125
100
AcDbEntity
8
0
100
AcDbCircle
10
1.0007429682216327
20
1.3585526287293803
30
4.2186610901985003e-18
40
0.19685039370078755
0
CIRCLE
5
126
100
AcDbEntity
8
0
100
AcDbCircle
10
8.4114173228346427
20
0.34055118110236232
30
-2.4080939421916409e-18
40
0.098425196850393346
0
LWPOLYLINE
5
127
100
AcDbEntity
8
0
100
AcDbPolyline
90
4
70
1
43
0.0
10
11.757874015748028
20
0.98425196850393726
10
3.8838582677165316
20
0.98425196850393626
42
-0.99999999999999989
10
3.883858267716533
20
3.7401574803149602
10
11.757874015748028
20
3.7401574803149602
42
-0.99999999999999989
0
CIRCLE
5
128
100
AcDbEntity
8
0
100
AcDbCircle
10
8.4114173228346427
20
4.3838582677165343
30
-2.4080939421916409e-18
40
0.098425196850393692
0
CIRCLE
5
129
100
AcDbEntity
8
0
100
AcDbCircle
10
11.167322834645667
20
4.3838582677165343
30
7.7686730290946264e-18
40
0.098425196850393692
0
CIRCLE
5
130
100
AcDbEntity
8
0
100
AcDbCircle
10
11.167322834645667
20
0.34055118110236254
30
7.7686730290946264e-18
40
0.098425196850393692
0
CIRCLE
5
131
100
AcDbEntity
8
0
100
AcDbCircle
10
14.514022866382419
20
4.3307086614173196
30
-4.6550480955205897e-19
40
0.078740157480315029
0
CIRCLE
5
132
100
AcDbEntity
8
0
100
AcDbCircle
10
14.514022866382419
20
0.39370078740157488
30
-4.6550480955205897e-19
40
0.078740157480315029
0
LWPOLYLINE
5
133
100
AcDbEntity
8
0
100
AcDbPolyline
90
4
70
1
43
0.0
10
15.507644913626313
20
1.3484251968503951
42
-0.99999999999999989
10
15.507644913626313
20
1.190944881889765
10
15.271424441185367
20
1.190944881889765
42
-0.99999999999999989
10
15.271424441185367
20
1.3484251968503951
0
LWPOLYLINE
5
134
100
AcDbEntity
8
0
100
AcDbPolyline
90
4
70
1
43
0.0
10
15.271424441185367
20
3.3661417322834661
42
-0.99999999999999989
10
15.271424441185367
20
3.5236220472440953
10
15.507644913626313
20
3.5236220472440953
42
-0.99999999999999989
10
15.507644913626313
20
3.3661417322834661
0
LWPOLYLINE
5
135
100
AcDbEntity
8
0
100
AcDbPolyline
90
4
70
1
43
0.0
10
15.704495307326901
20
4.7244094488188972
10
-5.4478404934211881e-16
20
4.7244094488188972
42
0.99999999999999989
10
0
20
-3.4967654318902565e-16
10
15.704495307326901
20
0
0
ENDSEC
0
SECTION
2
OBJECTS
0
DICTIONARY
5
C
100
AcDbDictionary
3
ACAD_GROUP
350
D
3
ACAD_MLINESTYLE
350
17
0
DICTIONARY
5
D
100
AcDbDictionary
0
DICTIONARY
5
1A
330
C
100
AcDbDictionary
0
DICTIONARY
5
17
100
AcDbDictionary
0
ENDSEC
0
EOF
