0
SECTION
2
HEADER
9
$INSUNITS
70
4
9
$ACADVER
1
AC1014
9
$HANDSEED
5
FFFF
0
ENDSEC
0
SECTION
2
TABLES
0
TABLE
2
VPORT
5
8
100
AcDbSymbolTable
0
ENDTAB
0
TABLE
2
LTYPE
5
5
100
AcDbSymbolTable
0
LTYPE
5
14
100
AcDbSymbolTableRecord
100
AcDbLinetypeTableRecord
2
BYBLOCK
70
0
0
LTYPE
5
15
100
AcDbSymbolTableRecord
100
AcDbLinetypeTableRecord
2
BYLAYER
70
0
0
ENDTAB
0
TABLE
2
LAYER
5
2
100
AcDbSymbolTable
70
2
0
LAYER
5
50
100
AcDbSymbolTableRecord
100
AcDbLayerTableRecord
2
0
70
0
6
CONTINUOUS
0
ENDTAB
0
TABLE
2
STYLE
5
3
100
AcDbSymbolTable
70
1
0
STYLE
5
11
100
AcDbSymbolTableRecord
100
AcDbTextStyleTableRecord
2
STANDARD
70
0
0
ENDTAB
0
TABLE
2
VIEW
5
6
100
AcDbSymbolTable
70
0
0
ENDTAB
0
TABLE
2
UCS
5
7
100
AcDbSymbolTable
70
0
0
ENDTAB
0
TABLE
2
APPID
5
9
100
AcDbSymbolTable
70
2
0
APPID
5
12
100
AcDbSymbolTableRecord
100
AcDbRegAppTableRecord
2
ACAD
70
0
0
ENDTAB
0
TABLE
2
DIMSTYLE
5
A
100
AcDbSymbolTable
70
1
0
ENDTAB
0
TABLE
2
BLOCK_RECORD
5
1
100
AcDbSymbolTable
70
1
0
BLOCK_RECORD
5
1F
100
AcDbSymbolTableRecord
100
AcDbBlockTableRecord
2
*MODEL_SPACE
0
BLOCK_RECORD
5
1B
100
AcDbSymbolTableRecord
100
AcDbBlockTableRecord
2
*PAPER_SPACE
0
ENDTAB
0
ENDSEC
0
SECTION
2
BLOCKS
0
BLOCK
5
20
100
AcDbEntity
100
AcDbBlockBegin
2
*MODEL_SPACE
0
ENDBLK
5
21
100
AcDbEntity
100
AcDbBlockEnd
0
BLOCK
5
1C
100
AcDbEntity
100
AcDbBlockBegin
2
*PAPER_SPACE
0
ENDBLK
5
1D
100
AcDbEntity
100
AcDbBlockEnd
0
ENDSEC
0
SECTION
2
ENTITIES
0
CIRCLE
5
100
100
AcDbEntity
8
0
100
AcDbCircle
10
0
20
61.5
30
0
40
2.9999999999999982
0
CIRCLE
5
101
100
AcDbEntity
8
0
100
AcDbCircle
10
0
20
18.5
30
0
40
2.9999999999999982
0
CIRCLE
5
102
100
AcDbEntity
8
0
100
AcDbCircle
10
-21.499999999999986
20
40
30
0
40
2.9999999999999991
0
CIRCLE
5
103
100
AcDbEntity
8
0
100
AcDbCircle
10
21.499999999999986
20
40
30
0
40
2.9999999999999991
0
CIRCLE
5
104
100
AcDbEntity
8
0
100
AcDbCircle
10
152.34936000000002
20
60
30
-2.5243548967072378e-28
40
1.9999999999999951
0
CIRCLE
5
105
100
AcDbEntity
8
0
100
AcDbCircle
10
152.34936000000002
20
20
30
-2.5243548967072378e-28
40
1.9999999999999929
0
LWPOLYLINE
5
106
100
AcDbEntity
8
0
100
AcDbPolyline
90
4
70
1
43
0.0
10
225.75735507960508
20
22
10
221.75735507960511
20
21.999999999999996
42
0.99999999999999989
10
221.75735507960511
20
18.000000000000004
10
225.75735507960508
20
18
42
0.99999999999999989
0
LINE
5
107
100
AcDbEntity
8
0
100
AcDbLine
10
225.75735507960508
20
58
30
2.5243548967072378e-28
11
221.75735507960511
21
58
31
2.603240987229339e-28
0
ARC
5
108
100
AcDbEntity
8
0
100
AcDbCircle
10
221.75735507960511
20
60
30
2.5243548967072378e-28
40
2.0000000000000018
100
AcDbArc
50
90
51
270
0
LINE
5
109
100
AcDbEntity
8
0
100
AcDbLine
10
221.75735507960511
20
62.000000432133682
30
2.5243548967072378e-28
11
225.75735507960508
21
62.000000432133682
31
2.4454688061851366e-28
0
ARC
5
110
100
AcDbEntity
8
0
100
AcDbCircle
10
225.75735507960508
20
60
30
2.5243548967072378e-28
40
2.0000000000000018
100
AcDbArc
50
-90
51
90
0
LWPOLYLINE
5
111
100
AcDbEntity
8
0
100
AcDbPolyline
90
4
70
1
43
0.0
10
230.75735507960158
20
0
10
0
20
0
42
-0.99999999999999989
10
0
20
80
10
230.75735507960158
20
80
0
CIRCLE
5
112
100
AcDbEntity
8
0
100
AcDbCircle
10
1.5597471858436612e-14
20
18.5
30
-4.9334657210532463e-28
40
2.9999999999999982
0
CIRCLE
5
113
100
AcDbEntity
8
0
100
AcDbCircle
10
21.500000000000004
20
40
30
-1.2202168342399007e-16
40
2.9999999999999991
0
CIRCLE
5
114
100
AcDbEntity
8
0
100
AcDbCircle
10
-21.499999999999968
20
40
30
1.2202168342291722e-16
40
2.9999999999999991
0
CIRCLE
5
115
100
AcDbEntity
8
0
100
AcDbCircle
10
1.5597471858436612e-14
20
61.5
30
-4.9334657210532463e-28
40
2.9999999999999982
0
CIRCLE
5
116
100
AcDbEntity
8
0
100
AcDbCircle
10
152.34936000000002
20
60
30
2.4292609783212908e-18
40
1.9999999999999951
0
CIRCLE
5
117
100
AcDbEntity
8
0
100
AcDbCircle
10
152.34936000000002
20
20
30
2.4292609783212908e-18
40
1.9999999999999929
0
LWPOLYLINE
5
118
100
AcDbEntity
8
0
100
AcDbPolyline
90
4
70
1
43
0.0
10
221.75735507960502
20
21.999999999999996
10
225.75735507960505
20
22
42
-0.99999999999999989
10
225.75735507960505
20
18
10
221.75735507960502
20
18.000000000000004
42
-0.99999999999999989
0
LINE
5
119
100
AcDbEntity
8
0
100
AcDbLine
10
221.75735507960502
20
58
30
-1.1990071023936338e-16
11
225.75735507960505
21
58
31
-1.1990071023935549e-16
0
ARC
5
120
100
AcDbEntity
8
0
100
AcDbCircle
10
225.75735507960505
20
60
30
-7.0519332188148229e-18
40
2.0000000000000018
100
AcDbArc
50
-90
51
90
0
LINE
5
121
100
AcDbEntity
8
0
100
AcDbLine
10
225.75735507960505
20
62.000000432133682
30
-7.0519332188148229e-18
11
221.75735507960502
21
62.000000432133682
31
-7.0519332188227115e-18
0
ARC
5
122
100
AcDbEntity
8
0
100
AcDbCircle
10
221.75735507960502
20
60
30
-1.1990071023936338e-16
40
2.0000000000000018
100
AcDbArc
50
90
51
270
0
LWPOLYLINE
5
123
100
AcDbEntity
8
0
100
AcDbPolyline
90
4
70
1
43
0.0
10
230.75735507960155
20
80
10
1.5597471858436612e-14
20
80
42
0.99999999999999989
10
0
20
0
10
230.75735507960155
20
0
0
ENDSEC
0
SECTION
2
OBJECTS
0
DICTIONARY
5
C
100
AcDbDictionary
3
ACAD_GROUP
350
D
3
ACAD_MLINESTYLE
350
17
0
DICTIONARY
5
D
100
AcDbDictionary
0
DICTIONARY
5
1A
330
C
100
AcDbDictionary
0
DICTIONARY
5
17
100
AcDbDictionary
0
ENDSEC
0
EOF
